<svg width="0" height="0" class="hidden">
  <symbol fill="none" xmlns="http://www.w3.org/2000/svg" viewBox="0 0 12 8" id="caret-down">
    <path d="M12 0L6 7.5L0 0H12Z" fill="#2A254B"></path>
  </symbol>
  <symbol fill="none" xmlns="http://www.w3.org/2000/svg" viewBox="0 0 22 21" id="cart">
    <path d="M7.5 21.0002C8.32843 21.0002 9 20.3286 9 19.5002C9 18.6717 8.32843 18.0002 7.5 18.0002C6.67157 18.0002 6 18.6717 6 19.5002C6 20.3286 6.67157 21.0002 7.5 21.0002Z" fill="#2A254B"></path>
    <path d="M18 21.0002C18.8284 21.0002 19.5 20.3286 19.5 19.5002C19.5 18.6717 18.8284 18.0002 18 18.0002C17.1716 18.0002 16.5 18.6717 16.5 19.5002C16.5 20.3286 17.1716 21.0002 18 21.0002Z" fill="#2A254B"></path>
    <path d="M21 3.75015H4.365L3.75 0.600153C3.71494 0.428196 3.62068 0.27398 3.48364 0.164348C3.3466 0.0547174 3.17546 -0.00338587 3 0.000152579H0V1.50015H2.385L5.25 15.9002C5.28506 16.0721 5.37932 16.2263 5.51636 16.336C5.6534 16.4456 5.82454 16.5037 6 16.5002H19.5V15.0002H6.615L6 12.0002H19.5C19.6734 12.0044 19.8429 11.9484 19.9796 11.8418C20.1163 11.7351 20.2119 11.5843 20.25 11.4152L21.75 4.66515C21.7751 4.55387 21.7745 4.43832 21.7483 4.3273C21.722 4.21628 21.6708 4.11271 21.5985 4.02448C21.5261 3.93625 21.4347 3.86568 21.3309 3.81814C21.2272 3.7706 21.114 3.74735 21 3.75015ZM18.9 10.5002H5.715L4.665 5.25015H20.0625L18.9 10.5002Z" fill="#2A254B"></path>
  </symbol>
  <symbol fill="none" xmlns="http://www.w3.org/2000/svg" viewBox="0 0 21 21" id="checkmark">
    <path d="M9 14.5605L5.25 10.8097L6.30976 9.75L9 12.4395L14.6888 6.75L15.75 7.81125L9 14.5605Z" fill="#2A254B"></path>
    <path d="M10.5 0C8.4233 0 6.39323 0.615814 4.66652 1.76957C2.9398 2.92332 1.59399 4.5632 0.79927 6.48182C0.00454947 8.40045 -0.203386 10.5116 0.201759 12.5484C0.606904 14.5852 1.60693 16.4562 3.07538 17.9246C4.54383 19.3931 6.41476 20.3931 8.45156 20.7982C10.4884 21.2034 12.5996 20.9955 14.5182 20.2007C16.4368 19.406 18.0767 18.0602 19.2304 16.3335C20.3842 14.6068 21 12.5767 21 10.5C21 7.71523 19.8938 5.04451 17.9246 3.07538C15.9555 1.10625 13.2848 0 10.5 0ZM10.5 19.5C8.71997 19.5 6.97992 18.9722 5.49987 17.9832C4.01983 16.9943 2.86628 15.5887 2.18509 13.9442C1.5039 12.2996 1.32567 10.49 1.67294 8.74419C2.0202 6.99836 2.87737 5.39471 4.13604 4.13604C5.39472 2.87737 6.99836 2.0202 8.74419 1.67293C10.49 1.32567 12.2996 1.5039 13.9442 2.18508C15.5887 2.86627 16.9943 4.01983 17.9832 5.49987C18.9722 6.97991 19.5 8.71997 19.5 10.5C19.5 12.8869 18.5518 15.1761 16.864 16.864C15.1761 18.5518 12.887 19.5 10.5 19.5Z" fill="#2A254B"></path>
  </symbol>
  <symbol fill="none" xmlns="http://www.w3.org/2000/svg" viewBox="0 0 12 12" id="close">
    <path d="M12 1.05L10.95 0L6 4.95L1.05 0L0 1.05L4.95 6L0 10.95L1.05 12L6 7.05L10.95 12L12 10.95L7.05 6L12 1.05Z" fill="#2A254B"></path>
  </symbol>
  <symbol fill="none" xmlns="http://www.w3.org/2000/svg" viewBox="0 0 21 17" id="delivery">
    <path d="M10.5 7.5H1.5V9H10.5V7.5Z" fill="#2A254B"></path>
    <path d="M7.5 3.75H0V5.25H7.5V3.75Z" fill="#2A254B"></path>
    <path d="M20.9392 7.9548L18.6892 2.7048C18.6315 2.56979 18.5355 2.45469 18.4129 2.37383C18.2904 2.29297 18.1468 2.24991 18 2.25H15.75V0.75C15.75 0.551088 15.671 0.360322 15.5303 0.21967C15.3897 0.0790178 15.1989 0 15 0H3V1.5H14.25V10.9172C13.9083 11.1156 13.6092 11.3797 13.3701 11.6943C13.1309 12.0089 12.9564 12.3677 12.8566 12.75H8.14342C7.96088 12.043 7.52675 11.4269 6.92242 11.017C6.31809 10.6072 5.58504 10.4319 4.86067 10.5239C4.13631 10.6159 3.47038 10.9689 2.98768 11.5168C2.50499 12.0647 2.23869 12.7698 2.23869 13.5C2.23869 14.2302 2.50499 14.9353 2.98768 15.4832C3.47038 16.0311 4.13631 16.3841 4.86067 16.4761C5.58504 16.5681 6.31809 16.3928 6.92242 15.983C7.52675 15.5731 7.96088 14.957 8.14342 14.25H12.8566C13.0201 14.8933 13.3934 15.4638 13.9174 15.8712C14.4414 16.2787 15.0862 16.4999 15.75 16.4999C16.4138 16.4999 17.0586 16.2787 17.5826 15.8712C18.1066 15.4638 18.4799 14.8933 18.6434 14.25H20.25C20.4489 14.25 20.6397 14.171 20.7803 14.0303C20.921 13.8897 21 13.6989 21 13.5V8.25C21 8.14849 20.9793 8.04805 20.9392 7.9548ZM5.25 15C4.95333 15 4.66332 14.912 4.41665 14.7472C4.16997 14.5824 3.97771 14.3481 3.86418 14.074C3.75065 13.7999 3.72094 13.4983 3.77882 13.2074C3.8367 12.9164 3.97956 12.6491 4.18934 12.4393C4.39912 12.2296 4.66639 12.0867 4.95736 12.0288C5.24834 11.9709 5.54994 12.0006 5.82403 12.1142C6.09811 12.2277 6.33238 12.42 6.4972 12.6666C6.66203 12.9133 6.75 13.2033 6.75 13.5C6.74954 13.8977 6.59136 14.279 6.31016 14.5602C6.02895 14.8414 5.64768 14.9995 5.25 15ZM15.75 3.75H17.5056L19.1129 7.5H15.75V3.75ZM15.75 15C15.4533 15 15.1633 14.912 14.9166 14.7472C14.67 14.5824 14.4777 14.3481 14.3642 14.074C14.2506 13.7999 14.2209 13.4983 14.2788 13.2074C14.3367 12.9164 14.4796 12.6491 14.6893 12.4393C14.8991 12.2296 15.1664 12.0867 15.4574 12.0288C15.7483 11.9709 16.0499 12.0006 16.324 12.1142C16.5981 12.2277 16.8324 12.42 16.9972 12.6666C17.162 12.9133 17.25 13.2033 17.25 13.5C17.2495 13.8977 17.0914 14.279 16.8102 14.5602C16.5289 14.8414 16.1477 14.9995 15.75 15ZM19.5 12.75H18.6434C18.4782 12.1076 18.1045 11.5382 17.5808 11.131C17.0572 10.7239 16.4133 10.5019 15.75 10.5V9H19.5V12.75Z" fill="#2A254B"></path>
  </symbol>
  <symbol fill="none" xmlns="http://www.w3.org/2000/svg" viewBox="0 0 18 18" id="facebook">
    <path d="M17.0025 0H0.9975C0.733553 0.00196251 0.480974 0.107686 0.29433 0.29433C0.107686 0.480974 0.00196251 0.733553 0 0.9975V17.0025C0.00196251 17.2664 0.107686 17.519 0.29433 17.7057C0.480974 17.8923 0.733553 17.998 0.9975 18H9.615V11.04H7.275V8.3175H9.615V6.315C9.615 3.99 11.0325 2.7225 13.1175 2.7225C13.815 2.7225 14.5125 2.7225 15.21 2.8275V5.25H13.7775C12.645 5.25 12.4275 5.79 12.4275 6.5775V8.31H15.1275L14.775 11.0325H12.4275V18H17.0025C17.2664 17.998 17.519 17.8923 17.7057 17.7057C17.8923 17.519 17.998 17.2664 18 17.0025V0.9975C17.998 0.733553 17.8923 0.480974 17.7057 0.29433C17.519 0.107686 17.2664 0.00196251 17.0025 0Z" fill="#2A254B"></path>
  </symbol>
  <symbol fill="none" xmlns="http://www.w3.org/2000/svg" viewBox="0 0 18 18" id="instagram">
    <path d="M13.8042 5.2758C14.4007 5.2758 14.8842 4.79227 14.8842 4.1958C14.8842 3.59933 14.4007 3.1158 13.8042 3.1158C13.2077 3.1158 12.7242 3.59933 12.7242 4.1958C12.7242 4.79227 13.2077 5.2758 13.8042 5.2758Z" fill="#2A254B"></path>
    <path d="M9 4.37835C8.08592 4.37835 7.19237 4.64941 6.43235 5.15724C5.67232 5.66507 5.07995 6.38688 4.73015 7.23137C4.38035 8.07587 4.28883 9.00513 4.46715 9.90164C4.64548 10.7982 5.08565 11.6217 5.732 12.268C6.37835 12.9144 7.20185 13.3545 8.09836 13.5328C8.99487 13.7112 9.92413 13.6196 10.7686 13.2698C11.6131 12.92 12.3349 12.3277 12.8428 11.5677C13.3506 10.8076 13.6217 9.91408 13.6217 9C13.6217 7.77426 13.1347 6.59873 12.268 5.732C11.4013 4.86527 10.2257 4.37835 9 4.37835ZM9 12C8.40666 12 7.82664 11.8241 7.33329 11.4944C6.83994 11.1648 6.45542 10.6962 6.22836 10.1481C6.0013 9.59987 5.94189 8.99667 6.05764 8.41473C6.1734 7.83279 6.45912 7.29824 6.87868 6.87868C7.29824 6.45912 7.83279 6.1734 8.41473 6.05764C8.99667 5.94189 9.59987 6.0013 10.1481 6.22836C10.6962 6.45542 11.1648 6.83994 11.4944 7.33329C11.8241 7.82664 12 8.40666 12 9C12 9.79565 11.6839 10.5587 11.1213 11.1213C10.5587 11.6839 9.79565 12 9 12Z" fill="#2A254B"></path>
    <path d="M9 1.62165C11.4031 1.62165 11.6878 1.6308 12.6368 1.67415C13.2075 1.68094 13.7728 1.78577 14.308 1.98405C14.6961 2.13381 15.0486 2.36316 15.3428 2.65732C15.6369 2.95149 15.8663 3.30398 16.016 3.6921C16.2143 4.22731 16.3191 4.79261 16.3259 5.36333C16.3692 6.3123 16.3784 6.597 16.3784 9.00007C16.3784 11.4031 16.3693 11.6878 16.3259 12.6368C16.3191 13.2075 16.2143 13.7728 16.016 14.3081C15.8663 14.6962 15.6369 15.0487 15.3428 15.3428C15.0486 15.637 14.6961 15.8663 14.308 16.0161C13.7728 16.2144 13.2075 16.3192 12.6368 16.326C11.6879 16.3693 11.4033 16.3785 9 16.3785C6.5967 16.3785 6.31215 16.3694 5.36325 16.326C4.79253 16.3192 4.22723 16.2144 3.69202 16.0161C3.3039 15.8663 2.95142 15.637 2.65725 15.3428C2.36308 15.0487 2.13374 14.6962 1.98397 14.3081C1.78569 13.7728 1.68087 13.2075 1.67408 12.6368C1.6308 11.6878 1.62157 11.4031 1.62157 9.00007C1.62157 6.597 1.63072 6.3123 1.67408 5.36333C1.68087 4.79261 1.78569 4.22731 1.98397 3.6921C2.13373 3.30396 2.36307 2.95146 2.65724 2.65728C2.95141 2.3631 3.30389 2.13375 3.69202 1.98397C4.22723 1.78569 4.79253 1.68087 5.36325 1.67408C6.31222 1.6308 6.59693 1.62165 9 1.62165ZM9 0C6.55575 0 6.24922 0.0103499 5.2893 0.0541499C4.54279 0.0691372 3.80422 0.210592 3.105 0.4725C2.50705 0.703735 1.96401 1.05735 1.51068 1.51068C1.05735 1.96401 0.703735 2.50705 0.4725 3.105C0.210551 3.80434 0.0690949 4.54304 0.0541499 5.28968C0.0103499 6.24923 0 6.55575 0 9C0 11.4443 0.0103499 11.7508 0.0541499 12.7107C0.0691036 13.4573 0.210559 14.196 0.4725 14.8954C0.703735 15.4933 1.05735 16.0364 1.51068 16.4897C1.96401 16.943 2.50705 17.2966 3.105 17.5279C3.80434 17.7898 4.54304 17.9313 5.28968 17.9462C6.24923 17.9897 6.55575 18 9 18C11.4443 18 11.7508 17.9896 12.7107 17.9459C13.4573 17.9309 14.196 17.7894 14.8954 17.5275C15.4933 17.2963 16.0364 16.9426 16.4897 16.4893C16.943 16.036 17.2966 15.493 17.5279 14.895C17.7898 14.1957 17.9313 13.457 17.9462 12.7103C17.9897 11.7508 18 11.4443 18 9C18 6.55575 17.9896 6.24922 17.9459 5.2893C17.9309 4.54279 17.7894 3.80422 17.5275 3.105C17.2962 2.50712 16.9426 1.96415 16.4893 1.51089C16.0359 1.05763 15.4929 0.704069 14.895 0.472875C14.1957 0.210934 13.457 0.0694787 12.7103 0.054525C11.7508 0.01035 11.4443 0 9 0Z" fill="#2A254B"></path>
  </symbol>
  <symbol fill="none" xmlns="http://www.w3.org/2000/svg" viewBox="0 0 18 18" id="linkedin">
    <path d="M16.65 0H1.35C0.6 0 0 0.6 0 1.275V16.65C0 17.325 0.6 17.925 1.35 17.925H16.65C17.4 17.925 18 17.325 18 16.65V1.275C18 0.6 17.4 0 16.65 0ZM5.325 15.3H2.7V6.75H5.325V15.3ZM4.05 5.55C3.225 5.55 2.475 4.875 2.475 3.975C2.475 3.075 3.15 2.4 4.05 2.4C4.875 2.4 5.625 3.075 5.625 3.975C5.625 4.875 4.875 5.55 4.05 5.55ZM15.375 15.225H12.75V11.025C12.75 10.05 12.75 8.7 11.325 8.7C9.9 8.7 9.75 9.825 9.75 10.875V15.15H7.125V6.75H9.6V7.875H9.675C10.05 7.2 10.95 6.45 12.225 6.45C14.925 6.45 15.45 8.25 15.45 10.575V15.225H15.375Z" fill="#2A254B"></path>
  </symbol>
  <symbol fill="none" xmlns="http://www.w3.org/2000/svg" viewBox="0 0 18 15" id="menu">
    <path d="M18 0H0V1.5H18V0Z" fill="#2A254B"></path>
    <path d="M18 13.5H0V15H18V13.5Z" fill="#2A254B"></path>
    <path d="M18 4.5H0V6H18V4.5Z" fill="#2A254B"></path>
    <path d="M18 9H0V10.5H18V9Z" fill="#2A254B"></path>
  </symbol>
  <symbol fill="none" xmlns="http://www.w3.org/2000/svg" viewBox="0 0 21 21" id="pinterest">
    <path d="M10.4285 0C7.9942 0.0165781 5.64128 0.878485 3.77227 2.43828C1.90326 3.99807 0.6343 6.15882 0.182465 8.55089C-0.26937 10.943 0.123999 13.4177 1.29528 15.5518C2.46656 17.6858 4.34297 19.3466 6.60351 20.25C6.45158 19.2558 6.45158 18.2442 6.60351 17.25L7.84101 12C7.64517 11.5245 7.5482 11.0142 7.55601 10.5C7.55601 9.045 8.40351 7.95 9.45351 7.95C9.64373 7.94714 9.83232 7.98543 10.0064 8.06224C10.1804 8.13906 10.3358 8.25258 10.4619 8.39504C10.5879 8.5375 10.6817 8.70553 10.7368 8.88761C10.7919 9.0697 10.807 9.26154 10.781 9.45C10.781 10.35 10.211 11.7 9.91101 12.945C9.84644 13.1772 9.83877 13.4215 9.88863 13.6573C9.9385 13.8931 10.0444 14.1133 10.1975 14.2995C10.3505 14.4857 10.5462 14.6322 10.7679 14.7267C10.9895 14.8212 11.2307 14.861 11.471 14.8425C13.331 14.8425 14.771 12.87 14.771 10.035C14.7897 9.45891 14.6881 8.88525 14.4728 8.35061C14.2574 7.81598 13.9329 7.3321 13.5201 6.92986C13.1073 6.52762 12.6151 6.21584 12.0751 6.01442C11.535 5.81299 10.9589 5.72634 10.3835 5.76C9.76919 5.73361 9.15589 5.83216 8.58075 6.04966C8.00562 6.26717 7.48059 6.59912 7.03747 7.02542C6.59434 7.45172 6.24232 7.96351 6.00272 8.5298C5.76312 9.09609 5.64092 9.70511 5.64351 10.32C5.63517 11.1766 5.89766 12.0139 6.39351 12.7125C6.42957 12.7526 6.45525 12.8009 6.46833 12.8532C6.4814 12.9055 6.48147 12.9602 6.46851 13.0125C6.38601 13.3425 6.20601 14.0625 6.17601 14.205C6.14601 14.3475 6.01851 14.4375 5.82351 14.3475C4.51101 13.7325 3.69351 11.82 3.69351 10.275C3.69351 6.9675 6.10101 3.9225 10.631 3.9225C14.2685 3.9225 17.1035 6.5175 17.1035 9.99C17.1035 13.605 14.8535 16.515 11.651 16.515C11.1815 16.5313 10.7154 16.4301 10.295 16.2206C9.87452 16.011 9.5131 15.6997 9.24351 15.315L8.59101 17.8125C8.27822 18.7831 7.83948 19.7085 7.28601 20.565C8.30585 20.8664 9.36515 21.013 10.4285 21C13.2133 21 15.884 19.8938 17.8531 17.9246C19.8223 15.9555 20.9285 13.2848 20.9285 10.5C20.9285 7.71523 19.8223 5.04451 17.8531 3.07538C15.884 1.10625 13.2133 0 10.4285 0Z" fill="#2A254B"></path>
  </symbol>
  <symbol fill="none" xmlns="http://www.w3.org/2000/svg" viewBox="0 0 21 15" id="purchase">
    <path d="M19.5 0H1.5C1.10218 0 0.720644 0.158035 0.43934 0.43934C0.158035 0.720644 0 1.10218 0 1.5V13.5C0 13.8978 0.158035 14.2794 0.43934 14.5607C0.720644 14.842 1.10218 15 1.5 15H19.5C19.8978 15 20.2794 14.842 20.5607 14.5607C20.842 14.2794 21 13.8978 21 13.5V1.5C21 1.10218 20.842 0.720644 20.5607 0.43934C20.2794 0.158035 19.8978 0 19.5 0ZM19.5 1.5V3.75H1.5V1.5H19.5ZM1.5 13.5V5.25H19.5V13.5H1.5Z" fill="#2A254B"></path>
    <path d="M10.5 10.5H3V12H10.5V10.5Z" fill="#2A254B"></path>
  </symbol>
  <symbol fill="none" xmlns="http://www.w3.org/2000/svg" viewBox="0 0 21 21" id="search">
    <path d="M20.2765 19.216L14.6125 13.5519C15.9735 11.9179 16.6522 9.82212 16.5074 7.70048C16.3625 5.57885 15.4053 3.59473 13.8348 2.16087C12.2644 0.727017 10.2016 -0.046177 8.07555 0.00213499C5.94953 0.050447 3.92397 0.916546 2.42026 2.42026C0.916546 3.92397 0.050447 5.94953 0.00213499 8.07555C-0.046177 10.2016 0.727017 12.2644 2.16087 13.8348C3.59473 15.4053 5.57885 16.3625 7.70048 16.5074C9.82212 16.6522 11.9179 15.9735 13.5519 14.6125L19.216 20.2765L20.2765 19.216ZM1.52654 8.27654C1.52654 6.94152 1.92243 5.63648 2.66412 4.52645C3.40582 3.41641 4.46003 2.55125 5.69343 2.04036C6.92683 1.52947 8.28403 1.39579 9.5934 1.65624C10.9028 1.91669 12.1055 2.55957 13.0495 3.50357C13.9935 4.44758 14.6364 5.65031 14.8968 6.95969C15.1573 8.26906 15.0236 9.62626 14.5127 10.8597C14.0018 12.0931 13.1367 13.1473 12.0266 13.889C10.9166 14.6307 9.61157 15.0265 8.27654 15.0265C6.48694 15.0246 4.77121 14.3128 3.50577 13.0473C2.24033 11.7819 1.52853 10.0661 1.52654 8.27654Z" fill="#2A254B"></path>
  </symbol>
  <symbol fill="none" xmlns="http://www.w3.org/2000/svg" viewBox="0 0 20 20" id="skype">
    <path d="M18.6196 11.1196C18.6953 10.6535 18.7329 10.1819 18.7321 9.70965C18.7321 7.31076 17.7792 5.01013 16.0829 3.31387C14.3867 1.6176 12.086 0.664648 9.68715 0.664648C9.21488 0.663914 8.74333 0.701538 8.27715 0.777148C7.2317 0.150901 6.007 -0.108121 4.79752 0.0412132C3.58804 0.190547 2.46313 0.739677 1.6014 1.6014C0.739677 2.46313 0.190547 3.58805 0.0412132 4.79752C-0.108121 6.007 0.150901 7.2317 0.777147 8.27715C0.692773 8.75012 0.64762 9.22925 0.642147 9.70965C0.642147 12.1085 1.5951 14.4092 3.29137 16.1054C4.98763 17.8017 7.28826 18.7547 9.68715 18.7547C10.1594 18.7554 10.631 18.7178 11.0971 18.6421C12.1426 19.2684 13.3673 19.5274 14.5768 19.3781C15.7862 19.2287 16.9112 18.6796 17.7729 17.8179C18.6346 16.9562 19.1837 15.8313 19.3331 14.6218C19.4824 13.4123 19.2234 12.1876 18.5971 11.1421L18.6196 11.1196ZM13.9846 13.8196C13.5613 14.4049 12.9779 14.8555 12.3046 15.1171C11.4739 15.4432 10.5868 15.6012 9.69465 15.5821C8.65617 15.6256 7.62304 15.4118 6.68715 14.9596C6.14151 14.6663 5.6736 14.2473 5.32215 13.7372C5.00021 13.3014 4.81724 12.7786 4.79715 12.2372C4.79636 12.0967 4.82459 11.9575 4.88009 11.8285C4.93558 11.6994 5.01714 11.5832 5.11965 11.4871C5.34681 11.2938 5.63924 11.1946 5.93715 11.2096C6.18611 11.2049 6.42842 11.2902 6.61965 11.4496C6.82896 11.6454 6.9906 11.8866 7.09215 12.1546C7.22227 12.4678 7.38838 12.7648 7.58715 13.0396C7.78525 13.2933 8.04285 13.4943 8.33715 13.6246C8.73689 13.7961 9.17006 13.8756 9.60465 13.8572C10.2236 13.8871 10.8367 13.7247 11.3596 13.3921C11.5603 13.2746 11.7272 13.1072 11.8442 12.9061C11.9611 12.7051 12.0242 12.4772 12.0271 12.2446C12.0336 12.0818 12.0056 11.9194 11.9448 11.7682C11.8841 11.6169 11.792 11.4803 11.6746 11.3671C11.4076 11.1211 11.0865 10.9413 10.7371 10.8421C10.3471 10.7146 9.82965 10.5871 9.17715 10.4446C8.42777 10.2702 7.6969 10.0241 6.99465 9.70965C6.44207 9.48317 5.95482 9.12225 5.57715 8.65965C5.21894 8.18283 5.03378 7.59824 5.05215 7.00215C5.04609 6.39615 5.24129 5.80528 5.60715 5.32215C6.02504 4.80296 6.58155 4.41288 7.21215 4.19715C8.0095 3.93231 8.84738 3.81044 9.68715 3.83715C10.3442 3.82553 10.9992 3.91404 11.6296 4.09965C12.1244 4.24655 12.5891 4.48018 13.0021 4.78965C13.3272 5.03378 13.5979 5.34282 13.7971 5.69715C13.9593 5.98338 14.047 6.30573 14.0521 6.63465C14.0512 6.77486 14.0222 6.91346 13.9668 7.04227C13.9114 7.17109 13.8308 7.2875 13.7296 7.38465C13.6276 7.49524 13.5034 7.58311 13.3651 7.64255C13.2269 7.70199 13.0776 7.73167 12.9271 7.72965C12.6859 7.74842 12.4467 7.67317 12.2596 7.51965C12.0628 7.33002 11.8982 7.10964 11.7721 6.86715C11.5864 6.48489 11.3173 6.14916 10.9846 5.88465C10.5481 5.61251 10.0343 5.4913 9.52215 5.53965C8.99646 5.51749 8.47556 5.64771 8.02215 5.91465C7.85745 6.00259 7.71836 6.13174 7.61846 6.28948C7.51856 6.44722 7.46126 6.62816 7.45215 6.81465C7.44621 7.01841 7.51264 7.2177 7.63965 7.37715C7.78923 7.55047 7.97309 7.69092 8.17965 7.78965C8.39961 7.90344 8.63087 7.99393 8.86965 8.05965C9.10965 8.12715 9.49965 8.22465 10.0471 8.35215C10.7371 8.50215 11.3521 8.66715 11.9146 8.84715C12.4178 9.00044 12.8973 9.22254 13.3396 9.50715C13.7255 9.75115 14.0429 10.0892 14.2621 10.4896C14.485 10.9463 14.5883 11.4521 14.5621 11.9596C14.5689 12.6248 14.3669 13.2753 13.9846 13.8196Z" fill="#2A254B"></path>
  </symbol>
  <symbol fill="none" xmlns="http://www.w3.org/2000/svg" viewBox="0 0 17 22" id="sprout">
    <path d="M14.25 0C12.5878 0.00274688 10.9651 0.507081 9.59416 1.44704C8.22323 2.387 7.16789 3.71881 6.56617 5.2683C6.08413 4.56903 5.43949 3.99727 4.68767 3.60216C3.93584 3.20705 3.09932 3.00041 2.25 3H0V5.25C0.0015484 6.64191 0.555169 7.97637 1.5394 8.9606C2.52363 9.94483 3.85809 10.4985 5.25 10.5H6V17.287C4.2773 17.4554 2.66718 18.2191 1.44675 19.4465L2.50725 20.5071C3.13464 19.8798 3.89333 19.3995 4.72869 19.1006C5.56405 18.8018 6.45528 18.692 7.33819 18.779C8.2211 18.8661 9.07373 19.1478 9.83465 19.604C10.5956 20.0602 11.2459 20.6794 11.7387 21.4172L12.9849 20.5826C12.3701 19.6638 11.5593 18.8926 10.611 18.3244C9.66262 17.7562 8.60018 17.4052 7.5 17.2965V10.5H8.25C10.4373 10.4975 12.5343 9.62753 14.0809 8.08089C15.6275 6.53425 16.4975 4.43727 16.5 2.25V0H14.25ZM5.25 9C4.25579 8.99887 3.30262 8.60342 2.5996 7.9004C1.89658 7.19738 1.50113 6.24421 1.5 5.25V4.5H2.25C3.24423 4.50107 4.19744 4.8965 4.90047 5.59953C5.6035 6.30256 5.99893 7.25577 6 8.25V9H5.25ZM15 2.25C14.998 4.0396 14.2862 5.75534 13.0208 7.02078C11.7553 8.28622 10.0396 8.99801 8.25 9H7.5V8.25C7.50199 6.4604 8.21378 4.74466 9.47922 3.47922C10.7447 2.21378 12.4604 1.50199 14.25 1.5H15V2.25Z" fill="#2A254B"></path>
  </symbol>
  <symbol fill="none" xmlns="http://www.w3.org/2000/svg" viewBox="0 0 17 14" id="twitter">
    <path d="M5.19 13.4076C6.45685 13.4156 7.71268 13.1719 8.88465 12.6908C10.0566 12.2097 11.1214 11.5006 12.0172 10.6048C12.913 9.70901 13.6221 8.64424 14.1032 7.47227C14.5843 6.30031 14.828 5.04448 14.82 3.77763C14.82 3.62763 14.82 3.48513 14.82 3.33513C15.4767 2.85399 16.0451 2.26275 16.5 1.58763C15.8816 1.85807 15.2273 2.03744 14.5575 2.12013C15.2677 1.69696 15.8006 1.03088 16.0575 0.245125C15.3956 0.642206 14.6699 0.921351 13.9125 1.07012C13.4024 0.52665 12.7275 0.166417 11.9921 0.0451645C11.2567 -0.0760878 10.5018 0.0483997 9.8443 0.399366C9.18678 0.750332 8.66324 1.30821 8.3547 1.98668C8.04617 2.66516 7.96983 3.4264 8.1375 4.15263C6.79202 4.08658 5.47553 3.73789 4.27377 3.12925C3.072 2.52062 2.0119 1.66569 1.1625 0.620125C0.734192 1.36351 0.60437 2.24187 0.79932 3.07737C0.994269 3.91287 1.49942 4.64307 2.2125 5.12013C1.68646 5.09984 1.17259 4.95595 0.7125 4.70013V4.73763C0.707825 5.5145 0.969541 6.26951 1.45403 6.87683C1.93851 7.48414 2.6165 7.90707 3.375 8.07513C2.88573 8.20672 2.37322 8.22722 1.875 8.13513C2.09459 8.79767 2.51376 9.37605 3.07503 9.79096C3.63631 10.2059 4.31219 10.437 5.01 10.4526C3.81691 11.413 2.33407 11.9417 0.8025 11.9526C0.533965 11.9449 0.26606 11.9223 0 11.8851C1.55022 12.8728 3.3519 13.3935 5.19 13.3851" fill="#2A254B"></path>
  </symbol>
  <symbol fill="none" xmlns="http://www.w3.org/2000/svg" viewBox="0 0 21 21" id="user-avatar">
    <path d="M10.5 4.5C9.75833 4.5 9.0333 4.71993 8.41662 5.13199C7.79993 5.54404 7.31928 6.12971 7.03546 6.81494C6.75163 7.50016 6.67736 8.25416 6.82206 8.98159C6.96675 9.70902 7.32391 10.3772 7.84835 10.9017C8.3728 11.4261 9.04099 11.7833 9.76842 11.9279C10.4958 12.0726 11.2498 11.9984 11.9351 11.7145C12.6203 11.4307 13.206 10.9501 13.618 10.3334C14.0301 9.7167 14.25 8.99168 14.25 8.25C14.25 7.25544 13.8549 6.30161 13.1517 5.59835C12.4484 4.89509 11.4946 4.5 10.5 4.5ZM10.5 10.5C10.055 10.5 9.61998 10.368 9.24997 10.1208C8.87996 9.87357 8.59157 9.52217 8.42128 9.11104C8.25098 8.6999 8.20642 8.2475 8.29324 7.81105C8.38005 7.37459 8.59435 6.97368 8.90901 6.65901C9.22368 6.34434 9.62459 6.13005 10.0611 6.04323C10.4975 5.95642 10.9499 6.00097 11.361 6.17127C11.7722 6.34157 12.1236 6.62996 12.3708 6.99997C12.618 7.36998 12.75 7.80499 12.75 8.25C12.7493 8.84653 12.5121 9.41843 12.0903 9.84024C11.6684 10.2621 11.0965 10.4993 10.5 10.5Z" fill="#2A254B"></path>
    <path d="M10.5 0C8.4233 0 6.39323 0.615814 4.66652 1.76957C2.9398 2.92332 1.59399 4.5632 0.79927 6.48182C0.00454947 8.40045 -0.203386 10.5116 0.201759 12.5484C0.606904 14.5852 1.60693 16.4562 3.07538 17.9246C4.54383 19.3931 6.41476 20.3931 8.45156 20.7982C10.4884 21.2034 12.5996 20.9955 14.5182 20.2007C16.4368 19.406 18.0767 18.0602 19.2304 16.3335C20.3842 14.6068 21 12.5767 21 10.5C20.9969 7.71619 19.8896 5.0473 17.9212 3.07884C15.9527 1.11039 13.2838 0.00313642 10.5 0ZM6 18.2824V17.25C6.00066 16.6535 6.23792 16.0815 6.65974 15.6597C7.08155 15.2379 7.65347 15.0007 8.25 15H12.75C13.3465 15.0007 13.9185 15.2379 14.3403 15.6597C14.7621 16.0815 14.9993 16.6535 15 17.25V18.2824C13.6344 19.0798 12.0814 19.5 10.5 19.5C8.91862 19.5 7.36563 19.0798 6 18.2824ZM16.4944 17.1944C16.4795 16.2105 16.0786 15.272 15.3782 14.5809C14.6778 13.8899 13.7339 13.5017 12.75 13.5H8.25C7.26608 13.5017 6.3222 13.8899 5.6218 14.5809C4.92139 15.272 4.52054 16.2105 4.50563 17.1944C3.14555 15.9799 2.18643 14.381 1.75526 12.6093C1.32408 10.8377 1.4412 8.97686 2.09111 7.27324C2.74101 5.56963 3.89304 4.1036 5.39466 3.06927C6.89627 2.03495 8.67664 1.48112 10.5 1.48112C12.3234 1.48112 14.1037 2.03495 15.6054 3.06927C17.107 4.1036 18.259 5.56963 18.9089 7.27324C19.5588 8.97686 19.6759 10.8377 19.2448 12.6093C18.8136 14.381 17.8545 15.9799 16.4944 17.1944Z" fill="#2A254B"></path>
  </symbol>
</svg>